<svg width="480" height="283" viewBox="0 0 480 283" fill="none" xmlns="http://www.w3.org/2000/svg">
<path d="M236.815 140.796C252.547 139.943 264.836 145.003 273.818 155.929L274.243 156.454C283.301 167.796 288.516 184.795 289.754 207.596C290.992 230.399 287.649 247.894 279.874 260.215C272.134 272.48 260.346 279.06 244.367 279.927C228.384 280.795 215.958 275.562 206.939 264.27C197.882 252.932 192.664 235.866 191.419 212.933C190.181 190.132 193.525 172.668 201.303 160.413C209.047 148.214 220.832 141.664 236.815 140.796Z" fill="white" stroke="#FE9F1A" stroke-width="2"/>
<path d="M206.158 264.894C196.916 253.325 191.671 236.021 190.421 212.987C189.177 190.085 192.523 172.381 200.458 159.877C208.395 147.376 220.493 140.681 236.761 139.797C253.027 138.915 265.783 144.261 275.025 155.83C284.266 167.401 289.51 184.639 290.753 207.542C291.996 230.447 288.651 248.18 280.719 260.749C272.788 273.317 260.687 280.043 244.421 280.926C228.153 281.809 215.401 276.466 206.158 264.894Z" stroke="#FE9F1A" stroke-width="2" stroke-miterlimit="10"/>
<path d="M237.912 161.011C242.104 160.784 245.695 161.536 248.74 163.207C251.787 164.877 254.384 167.518 256.506 171.214V171.215C260.789 178.68 263.499 191.188 264.464 208.968C265.422 226.615 264.084 239.351 260.636 247.37C258.927 251.342 256.63 254.296 253.784 256.316C250.94 258.334 247.458 259.485 243.271 259.712C239.081 259.94 235.493 259.173 232.447 257.474C229.399 255.774 226.797 253.086 224.67 249.322V249.321C220.371 241.723 217.666 229.208 216.708 211.561C215.75 193.915 217.088 181.216 220.54 173.261V173.26C222.248 169.323 224.543 166.393 227.39 164.387C230.235 162.383 233.721 161.239 237.912 161.011Z" stroke="#FE9F1A" stroke-width="3"/>
<path d="M262.013 247.962C265.605 239.612 266.922 226.586 265.962 208.887C264.994 191.06 262.274 178.253 257.807 170.469C253.338 162.684 246.679 159.033 237.831 159.513C228.98 159.993 222.757 164.378 219.164 172.664C215.566 180.953 214.25 193.945 215.21 211.642C216.171 229.34 218.888 242.148 223.364 250.06C227.838 257.976 234.501 261.691 243.351 261.211C252.199 260.731 258.42 256.316 262.013 247.962Z" stroke="#FE9F1A" stroke-width="3" stroke-miterlimit="10"/>
<path d="M318.326 210.979H156.574V213.136H318.326V210.979Z" fill="#FE9F1A"/>
<path d="M426.843 213.143H407.108C407.009 213.143 406.93 213.063 406.93 212.965V211.703C406.93 211.605 407.009 211.525 407.108 211.525H426.843C426.942 211.525 427.021 211.605 427.021 211.703V212.965C427.021 213.063 426.942 213.143 426.843 213.143Z" fill="#FE9F1A"/>
<path d="M67.6247 213.143H47.8888C47.7906 213.143 47.7109 213.063 47.7109 212.965V211.703C47.7109 211.605 47.7906 211.525 47.8888 211.525H67.6247C67.7229 211.525 67.8026 211.605 67.8026 211.703V212.965C67.8026 213.063 67.7229 213.143 67.6247 213.143Z" fill="#FE9F1A"/>
<path d="M409.567 246.12H389.712C389.647 246.12 389.594 246.067 389.594 246.002V245.161C389.594 245.095 389.647 245.042 389.712 245.042H409.567C409.632 245.042 409.685 245.095 409.685 245.161V246.002C409.685 246.067 409.632 246.12 409.567 246.12Z" fill="#FE9F1A"/>
<path d="M77.2903 73.1573C81.0587 73.1573 84.3353 70.4211 84.8443 66.687C84.9356 66.0175 84.9828 65.3336 84.9828 64.6389C84.9828 56.3259 78.2438 49.5868 69.9307 49.5868C69.5897 49.5868 69.2521 49.6022 68.9167 49.6245C68.2296 41.427 61.3627 34.9868 52.9875 34.9868C44.1562 34.9868 36.9974 42.1459 36.9974 50.9772C36.9974 51.3691 37.0164 51.7559 37.0439 52.1406C34.5372 50.7408 31.6172 49.9922 28.5105 50.1347C20.479 50.5028 13.8792 56.9274 13.3109 64.9475C13.3063 65.011 13.3023 65.0746 13.2985 65.1382C13.04 69.4996 16.5663 73.1573 20.9353 73.1573H77.2903Z" fill="#E9F2FF"/>
<path d="M470.734 110.069C482.637 110.069 483.296 92.1558 471.407 91.578C471.083 91.5624 470.756 91.5543 470.427 91.5543C468.305 91.5543 466.262 91.8904 464.345 92.5066C462.753 82.8105 454.339 75.4116 444.193 75.4116C433.824 75.4116 425.265 83.1407 423.948 93.1508C421.488 91.9715 418.732 91.31 415.821 91.31C414.195 91.31 412.617 91.5161 411.112 91.9037C400.705 94.5839 402.889 110.069 413.636 110.069H470.734V110.069Z" fill="#E9F2FF"/>
<path d="M366.886 35.6268C378.785 35.6268 379.444 17.7187 367.559 17.1411C367.235 17.1255 366.908 17.1174 366.579 17.1174C364.458 17.1174 362.415 17.4535 360.498 18.0695C358.908 8.3765 350.496 0.979492 340.353 0.979492C329.987 0.979492 321.43 8.70619 320.114 18.7135C317.655 17.5344 314.899 16.8734 311.99 16.8734C310.364 16.8734 308.787 17.0792 307.282 17.4668C296.878 20.1463 299.062 35.6268 309.806 35.6268H366.886Z" fill="#E9F2FF"/>
<path d="M361.792 68.5322C368.036 75.1237 369.742 75.17 376.334 68.926C369.742 75.1697 369.696 76.8759 375.94 83.4674C369.696 76.8759 367.99 76.8296 361.398 83.0736C367.99 76.8296 368.036 75.1237 361.792 68.5322Z" fill="#E9F2FF"/>
<path d="M133.636 17.4771C139.88 24.0686 141.586 24.1148 148.177 17.8708C141.586 24.1146 141.54 25.8207 147.784 32.4122C141.54 25.8207 139.834 25.7744 133.242 32.0185C139.834 25.7744 139.88 24.0686 133.636 17.4771Z" fill="#E9F2FF"/>
<path d="M71.8351 111.646C78.0789 118.237 79.785 118.283 86.3766 112.039C79.785 118.283 79.7388 119.989 85.9828 126.581C79.739 119.989 78.0329 119.943 71.4414 126.187C78.0329 119.943 78.0789 118.237 71.8351 111.646Z" fill="#E9F2FF"/>
<path d="M0.393744 94.9282C6.63753 101.52 8.34364 101.566 14.9352 95.322C8.34364 101.566 8.29738 103.272 14.5414 109.863C8.29762 103.272 6.59151 103.226 0 109.47C6.59151 103.226 6.63753 101.52 0.393744 94.9282Z" fill="#E9F2FF"/>
<path d="M434.632 144.164C440.876 150.756 442.582 150.802 449.173 144.558C442.582 150.802 442.536 152.508 448.78 159.099C442.536 152.508 440.83 152.461 434.238 158.705C440.83 152.461 440.876 150.755 434.632 144.164Z" fill="#E9F2FF"/>
<path d="M209.697 122.996L266.702 106.256C267.769 105.942 268.38 104.823 268.067 103.756L244.801 24.5287C244.488 23.4615 243.369 22.8503 242.301 23.1636L203.272 34.6249C202.773 34.7715 202.35 35.1052 202.092 35.5563L189.184 58.0939C188.912 58.5697 188.845 59.1361 189 59.6622L207.197 121.631C207.511 122.698 208.63 123.309 209.697 122.996Z" fill="white"/>
<path d="M209.697 122.996L266.702 106.256C267.769 105.942 268.38 104.823 268.067 103.756L244.801 24.5287C244.488 23.4615 243.369 22.8503 242.301 23.1636L203.272 34.6249C202.773 34.7715 202.35 35.1052 202.092 35.5563L189.184 58.0939C188.912 58.5697 188.845 59.1361 189 59.6622L207.197 121.631C207.511 122.698 208.63 123.309 209.697 122.996Z" stroke="#062F6C" stroke-width="3" stroke-miterlimit="10" stroke-linecap="round" stroke-linejoin="round"/>
<path d="M202.997 35.854L207.756 52.0602C208.091 53.1997 207.441 54.3952 206.303 54.7346L189.363 59.7884" fill="white"/>
<path d="M202.997 35.854L207.756 52.0602C208.091 53.1997 207.441 54.3952 206.303 54.7346L189.363 59.7884" stroke="#062F6C" stroke-width="3" stroke-miterlimit="10" stroke-linecap="round" stroke-linejoin="round"/>
<path d="M218.381 110.056L215.153 111.004C214.902 111.077 214.638 110.933 214.564 110.682L210.578 97.1073C210.504 96.8559 210.648 96.5924 210.899 96.5186L214.128 95.5706C214.379 95.4968 214.643 95.6408 214.716 95.892L218.703 109.467C218.777 109.718 218.633 109.982 218.381 110.056Z" fill="#7297CF"/>
<path d="M234.936 105.194L231.707 106.142C231.456 106.216 231.192 106.072 231.119 105.821L228.347 96.3847C228.274 96.1333 228.418 95.8697 228.669 95.796L231.897 94.8479C232.148 94.7742 232.412 94.9181 232.486 95.1693L235.257 104.605C235.331 104.857 235.187 105.12 234.936 105.194Z" fill="#7297CF"/>
<path d="M243.213 102.764L239.985 103.712C239.734 103.785 239.47 103.641 239.396 103.39L235.41 89.8153C235.336 89.5639 235.48 89.3004 235.731 89.2266L238.96 88.2786C239.211 88.2048 239.475 88.3488 239.548 88.6L243.535 102.175C243.609 102.426 243.465 102.69 243.213 102.764Z" fill="#7297CF"/>
<path d="M226.659 107.625L223.431 108.573C223.18 108.647 222.916 108.503 222.842 108.252L217.64 90.5385C217.567 90.2871 217.711 90.0236 217.962 89.9498L221.19 89.0017C221.442 88.928 221.705 89.0719 221.779 89.3231L226.981 107.036C227.055 107.288 226.911 107.551 226.659 107.625Z" fill="#7297CF"/>
<path d="M202.094 68.2243L240.376 56.9824" stroke="#FE9F1A" stroke-width="3" stroke-miterlimit="10" stroke-linecap="round" stroke-linejoin="round"/>
<path d="M203.918 74.432L242.2 63.1899" stroke="#FE9F1A" stroke-width="3" stroke-miterlimit="10" stroke-linecap="round" stroke-linejoin="round"/>
<path d="M205.738 80.6398L244.021 69.3979" stroke="#FE9F1A" stroke-width="3" stroke-miterlimit="10" stroke-linecap="round" stroke-linejoin="round"/>
<path d="M287.455 101.613L288.875 98.5925C289.146 98.017 288.862 97.3337 288.264 97.1188L269.184 90.2671L268.348 91.7773L285.934 102.084C286.481 102.405 287.185 102.187 287.455 101.613Z" fill="#062F6C"/>
<path d="M254.871 101.165C263.407 101.165 270.328 94.2452 270.328 85.7087C270.328 77.1722 263.407 70.252 254.871 70.252C246.334 70.252 239.414 77.1722 239.414 85.7087C239.414 94.2452 246.334 101.165 254.871 101.165Z" fill="#7297CF"/>
<path d="M254.872 97.9436C261.629 97.9436 267.107 92.4658 267.107 85.7086C267.107 78.9514 261.629 73.4736 254.872 73.4736C248.115 73.4736 242.637 78.9514 242.637 85.7086C242.637 92.4658 248.115 97.9436 254.872 97.9436Z" fill="white"/>
<path d="M254.871 101.165C263.407 101.165 270.328 94.2452 270.328 85.7087C270.328 77.1722 263.407 70.252 254.871 70.252C246.334 70.252 239.414 77.1722 239.414 85.7087C239.414 94.2452 246.334 101.165 254.871 101.165Z" stroke="#062F6C" stroke-width="3" stroke-linecap="round" stroke-linejoin="round"/>
<path d="M254.945 79.7754L254.852 87.3233" stroke="#FE9F1A" stroke-width="2" stroke-linecap="round" stroke-linejoin="round"/>
<circle cx="254.796" cy="91.6363" r="0.94876" fill="#FE9F1A"/>
<path d="M254.798 91.6418C254.801 91.6418 254.804 91.6393 254.804 91.6363C254.804 91.6333 254.801 91.6309 254.798 91.6309C254.795 91.6309 254.793 91.6333 254.793 91.6363C254.793 91.6393 254.795 91.6418 254.798 91.6418Z" fill="#FE9F1A" stroke="#062F6C" stroke-width="2" stroke-linecap="round" stroke-linejoin="round"/>
<path d="M419.055 209.127L403.848 212.182L409.959 242.596L377.4 249.138L371.289 218.724L311.631 230.711L306.891 207.12L343.35 113.995L382.538 106.122L398.207 184.107L413.414 181.052L419.055 209.127ZM357.147 148.342L339.914 195.819L365.648 190.649L357.147 148.342Z" fill="#062F6C"/>
<path d="M168.127 224.873L152.827 222.323L147.727 252.923L114.969 247.463L120.069 216.863L60.0469 206.858L64.003 183.123L131.187 109.043L170.614 115.615L157.536 194.076L172.835 196.626L168.127 224.873ZM131.872 146.051L98.8858 184.301L124.777 188.616L131.872 146.051Z" fill="#062F6C"/>
<path d="M73.8246 247.599H53.9702C53.9047 247.599 53.8516 247.546 53.8516 247.481V246.64C53.8516 246.574 53.9047 246.521 53.9702 246.521H73.8246C73.8901 246.521 73.9432 246.574 73.9432 246.64V247.481C73.9432 247.546 73.8901 247.599 73.8246 247.599Z" fill="#7297CF"/>
<path d="M128.344 247.599H108.49C108.424 247.599 108.371 247.546 108.371 247.481V246.64C108.371 246.574 108.424 246.521 108.49 246.521H128.344C128.41 246.521 128.463 246.574 128.463 246.64V247.481C128.463 247.546 128.41 247.599 128.344 247.599Z" fill="#7297CF"/>
<path d="M177.965 234.794H158.111C158.045 234.794 157.992 234.741 157.992 234.675V233.834C157.992 233.769 158.045 233.716 158.111 233.716H177.965C178.031 233.716 178.084 233.769 178.084 233.834V234.675C178.084 234.741 178.031 234.794 177.965 234.794Z" fill="#7297CF"/>
<path d="M206.188 248.954H186.333C186.268 248.954 186.215 248.901 186.215 248.836V247.995C186.215 247.929 186.268 247.876 186.333 247.876H206.188C206.253 247.876 206.307 247.929 206.307 247.995V248.836C206.307 248.901 206.253 248.954 206.188 248.954Z" fill="#7297CF"/>
<path d="M275.817 248.954H255.962C255.897 248.954 255.844 248.901 255.844 248.836V247.995C255.844 247.929 255.897 247.876 255.962 247.876H275.817C275.882 247.876 275.935 247.929 275.935 247.995V248.836C275.935 248.901 275.882 248.954 275.817 248.954Z" fill="#7297CF"/>
<path d="M353.715 248.154H333.861C333.795 248.154 333.742 248.101 333.742 248.035V247.194C333.742 247.129 333.795 247.076 333.861 247.076H353.715C353.781 247.076 353.834 247.129 353.834 247.194V248.035C353.834 248.101 353.781 248.154 353.715 248.154Z" fill="#7297CF"/>
<path d="M106.25 232.719H86.3959C86.3305 232.719 86.2773 232.666 86.2773 232.6V231.759C86.2773 231.694 86.3305 231.641 86.3959 231.641H106.25C106.316 231.641 106.369 231.694 106.369 231.759V232.6C106.369 232.666 106.316 232.719 106.25 232.719Z" fill="#7297CF"/>
<path d="M244.887 232.193H225.033C224.967 232.193 224.914 232.14 224.914 232.074V231.233C224.914 231.168 224.967 231.115 225.033 231.115H244.887C244.953 231.115 245.006 231.168 245.006 231.233V232.074C245.006 232.14 244.953 232.193 244.887 232.193Z" fill="#7297CF"/>
<path d="M386.137 232.109H366.283C366.217 232.109 366.164 232.056 366.164 231.991V231.15C366.164 231.084 366.217 231.031 366.283 231.031H386.137C386.203 231.031 386.256 231.084 386.256 231.15V231.991C386.256 232.056 386.203 232.109 386.137 232.109Z" fill="#7297CF"/>
<path d="M316.61 227.087H296.755C296.69 227.087 296.637 227.034 296.637 226.968V226.127C296.637 226.062 296.69 226.009 296.755 226.009H316.61C316.675 226.009 316.728 226.062 316.728 226.127V226.968C316.728 227.034 316.675 227.087 316.61 227.087Z" fill="#7297CF"/>
</svg>
