<svg width="480" height="248" viewBox="0 0 480 248" fill="none" xmlns="http://www.w3.org/2000/svg">
<path d="M318.327 210H156.575V212.157H318.327V210Z" fill="#FE9F1A"/>
<path d="M426.845 212.163H407.109C407.011 212.163 406.931 212.084 406.931 211.985V210.724C406.931 210.626 407.011 210.546 407.109 210.546H426.845C426.943 210.546 427.023 210.626 427.023 210.724V211.985C427.023 212.084 426.943 212.163 426.845 212.163Z" fill="#FE9F1A"/>
<path d="M67.6232 212.163H47.8874C47.7892 212.163 47.7095 212.084 47.7095 211.985V210.724C47.7095 210.626 47.7892 210.546 47.8874 210.546H67.6232C67.7214 210.546 67.8011 210.626 67.8011 210.724V211.985C67.8011 212.084 67.7214 212.163 67.6232 212.163Z" fill="#FE9F1A"/>
<path d="M409.567 245.141H389.712C389.647 245.141 389.594 245.088 389.594 245.022V244.181C389.594 244.116 389.647 244.062 389.712 244.062H409.567C409.632 244.062 409.685 244.116 409.685 244.181V245.022C409.685 245.088 409.632 245.141 409.567 245.141Z" fill="#FE9F1A"/>
<path d="M77.2905 72.1783C81.059 72.1783 84.3355 69.4421 84.8445 65.708C84.9359 65.0384 84.983 64.3546 84.983 63.6599C84.983 55.3469 78.244 48.6078 69.931 48.6078C69.5899 48.6078 69.2524 48.6232 68.917 48.6455C68.2299 40.448 61.363 34.0078 52.9878 34.0078C44.1565 34.0078 36.9976 41.1669 36.9976 49.9982C36.9976 50.3901 37.0166 50.7769 37.0441 51.1616C34.5375 49.7617 31.6174 49.0132 28.5107 49.1557C20.4792 49.5238 13.8794 55.9484 13.3111 63.9685C13.3066 64.032 13.3026 64.0956 13.2988 64.1592C13.0402 68.5206 16.5665 72.1783 20.9356 72.1783H77.2905Z" fill="#F0F2F5"/>
<path d="M470.735 109.089C482.638 109.089 483.297 91.1758 471.408 90.598C471.083 90.5824 470.756 90.5743 470.428 90.5743C468.305 90.5743 466.262 90.9104 464.345 91.5266C462.754 81.8305 454.34 74.4316 444.194 74.4316C433.824 74.4316 425.265 82.1607 423.949 92.1708C421.489 90.9915 418.732 90.33 415.822 90.33C414.196 90.33 412.618 90.5361 411.113 90.9237C400.705 93.6039 402.89 109.089 413.637 109.089H470.735V109.089Z" fill="#F0F2F5"/>
<path d="M366.888 34.6473C378.787 34.6473 379.446 16.7392 367.561 16.1617C367.236 16.146 366.909 16.1379 366.581 16.1379C364.459 16.1379 362.417 16.474 360.5 17.09C358.909 7.39701 350.498 0 340.355 0C329.988 0 321.432 7.72669 320.116 17.734C317.656 16.5549 314.901 15.8939 311.991 15.8939C310.366 15.8939 308.788 16.0997 307.284 16.4873C296.879 19.1668 299.063 34.6473 309.807 34.6473H366.888Z" fill="#F0F2F5"/>
<path d="M361.793 67.5527C368.036 74.1442 369.743 74.1905 376.334 67.9465C369.743 74.1903 369.696 75.8964 375.94 82.4879C369.697 75.8964 367.99 75.8501 361.399 82.0941C367.99 75.8501 368.036 74.1442 361.793 67.5527Z" fill="#F0F2F5"/>
<path d="M133.636 16.498C139.88 23.0896 141.586 23.1358 148.178 16.8918C141.586 23.1356 141.54 24.8417 147.784 31.4332C141.54 24.8417 139.834 24.7954 133.243 31.0395C139.834 24.7954 139.88 23.0896 133.636 16.498Z" fill="#F0F2F5"/>
<path d="M71.8371 110.667C78.0809 117.259 79.787 117.305 86.3785 111.061C79.787 117.305 79.7407 119.011 85.9848 125.602C79.741 119.011 78.0349 118.964 71.4434 125.208C78.0349 118.965 78.0809 117.259 71.8371 110.667Z" fill="#F0F2F5"/>
<path d="M0.393744 93.9492C6.63753 100.541 8.34364 100.587 14.9352 94.343C8.34364 100.587 8.29738 102.293 14.5414 108.884C8.29762 102.293 6.59151 102.247 0 108.491C6.59151 102.247 6.63753 100.541 0.393744 93.9492Z" fill="#F0F2F5"/>
<path d="M434.631 143.185C440.874 149.776 442.58 149.822 449.172 143.578C442.58 149.822 442.534 151.528 448.778 158.12C442.534 151.528 440.828 151.482 434.237 157.726C440.828 151.482 440.874 149.776 434.631 143.185Z" fill="#F0F2F5"/>
<path d="M209.695 122.017L266.7 105.277C267.768 104.963 268.379 103.844 268.065 102.777L244.8 23.5496C244.486 22.4825 243.367 21.8713 242.3 22.1846L203.27 33.6459C202.771 33.7925 202.349 34.1262 202.09 34.5773L189.183 57.1149C188.91 57.5907 188.843 58.1571 188.998 58.6832L207.195 120.652C207.509 121.719 208.628 122.33 209.695 122.017Z" fill="white"/>
<path d="M209.695 122.017L266.7 105.277C267.768 104.963 268.379 103.844 268.065 102.777L244.8 23.5496C244.486 22.4825 243.367 21.8713 242.3 22.1846L203.27 33.6459C202.771 33.7925 202.349 34.1262 202.09 34.5773L189.183 57.1149C188.91 57.5907 188.843 58.1571 188.998 58.6832L207.195 120.652C207.509 121.719 208.628 122.33 209.695 122.017Z" stroke="#062F6C" stroke-width="3" stroke-miterlimit="10" stroke-linecap="round" stroke-linejoin="round"/>
<path d="M202.996 34.875L207.755 51.0812C208.09 52.2207 207.44 53.4161 206.302 53.7556L189.362 58.8094" fill="white"/>
<path d="M202.996 34.875L207.755 51.0812C208.09 52.2207 207.44 53.4161 206.302 53.7556L189.362 58.8094" stroke="#062F6C" stroke-width="3" stroke-miterlimit="10" stroke-linecap="round" stroke-linejoin="round"/>
<path d="M218.38 109.077L215.152 110.025C214.901 110.098 214.637 109.954 214.563 109.703L210.577 96.1283C210.503 95.8769 210.647 95.6134 210.898 95.5396L214.127 94.5916C214.378 94.5178 214.642 94.6618 214.715 94.913L218.702 108.488C218.776 108.739 218.632 109.003 218.38 109.077Z" fill="#7297CF"/>
<path d="M234.935 104.215L231.707 105.163C231.455 105.237 231.192 105.093 231.118 104.842L228.347 95.4057C228.273 95.1543 228.417 94.8907 228.668 94.817L231.896 93.8689C232.148 93.7952 232.411 93.9391 232.485 94.1903L235.256 103.626C235.33 103.878 235.186 104.141 234.935 104.215Z" fill="#7297CF"/>
<path d="M243.212 101.785L239.984 102.733C239.733 102.806 239.469 102.662 239.395 102.411L235.409 88.8363C235.335 88.5849 235.479 88.3214 235.73 88.2476L238.959 87.2996C239.21 87.2258 239.473 87.3698 239.547 87.621L243.534 101.196C243.608 101.447 243.464 101.711 243.212 101.785Z" fill="#7297CF"/>
<path d="M226.658 106.646L223.429 107.594C223.178 107.668 222.915 107.524 222.841 107.272L217.639 89.559C217.565 89.3076 217.709 89.0441 217.96 88.9703L221.189 88.0222C221.44 87.9485 221.704 88.0925 221.778 88.3436L226.979 106.057C227.053 106.308 226.909 106.572 226.658 106.646Z" fill="#7297CF"/>
<path d="M202.093 67.2448L240.375 56.0029" stroke="#FE9F1A" stroke-width="3" stroke-miterlimit="10" stroke-linecap="round" stroke-linejoin="round"/>
<path d="M203.916 73.453L242.198 62.2109" stroke="#FE9F1A" stroke-width="3" stroke-miterlimit="10" stroke-linecap="round" stroke-linejoin="round"/>
<path d="M205.739 79.6608L244.021 68.4189" stroke="#FE9F1A" stroke-width="3" stroke-miterlimit="10" stroke-linecap="round" stroke-linejoin="round"/>
<path d="M287.456 100.633L288.876 97.6125C289.147 97.0371 288.863 96.3537 288.265 96.1388L269.186 89.2871L268.349 90.7973L285.935 101.104C286.482 101.425 287.187 101.207 287.456 100.633Z" fill="#062F6C"/>
<path d="M254.87 100.186C263.407 100.186 270.327 93.2657 270.327 84.7292C270.327 76.1927 263.407 69.2725 254.87 69.2725C246.334 69.2725 239.414 76.1927 239.414 84.7292C239.414 93.2657 246.334 100.186 254.87 100.186Z" fill="#7297CF"/>
<path d="M254.87 96.9641C261.627 96.9641 267.105 91.4863 267.105 84.7291C267.105 77.9719 261.627 72.4941 254.87 72.4941C248.113 72.4941 242.635 77.9719 242.635 84.7291C242.635 91.4863 248.113 96.9641 254.87 96.9641Z" fill="white"/>
<path d="M254.87 100.186C263.407 100.186 270.327 93.2657 270.327 84.7292C270.327 76.1927 263.407 69.2725 254.87 69.2725C246.334 69.2725 239.414 76.1927 239.414 84.7292C239.414 93.2657 246.334 100.186 254.87 100.186Z" stroke="#062F6C" stroke-width="3" stroke-linecap="round" stroke-linejoin="round"/>
<path d="M254.943 78.7959L254.849 86.3438" stroke="#FE9F1A" stroke-width="2" stroke-linecap="round" stroke-linejoin="round"/>
<circle cx="254.795" cy="90.6568" r="0.94876" fill="#FE9F1A"/>
<path d="M254.795 90.6623C254.798 90.6623 254.8 90.6598 254.8 90.6568C254.8 90.6538 254.798 90.6514 254.795 90.6514C254.792 90.6514 254.79 90.6538 254.79 90.6568C254.79 90.6598 254.792 90.6623 254.795 90.6623Z" fill="#FE9F1A" stroke="#062F6C" stroke-width="2" stroke-linecap="round" stroke-linejoin="round"/>
<path d="M73.8261 246.619H53.9716C53.9062 246.619 53.853 246.566 53.853 246.501V245.66C53.853 245.594 53.9062 245.541 53.9716 245.541H73.8261C73.8916 245.541 73.9447 245.594 73.9447 245.66V246.501C73.9447 246.566 73.8916 246.619 73.8261 246.619Z" fill="#7297CF"/>
<path d="M128.346 246.619H108.492C108.426 246.619 108.373 246.566 108.373 246.501V245.66C108.373 245.594 108.426 245.541 108.492 245.541H128.346C128.412 245.541 128.465 245.594 128.465 245.66V246.501C128.465 246.566 128.412 246.619 128.346 246.619Z" fill="#7297CF"/>
<path d="M177.967 233.815H158.113C158.047 233.815 157.994 233.761 157.994 233.696V232.855C157.994 232.789 158.047 232.736 158.113 232.736H177.967C178.033 232.736 178.086 232.789 178.086 232.855V233.696C178.086 233.761 178.033 233.815 177.967 233.815Z" fill="#7297CF"/>
<path d="M206.187 247.975H186.333C186.267 247.975 186.214 247.922 186.214 247.856V247.015C186.214 246.95 186.267 246.896 186.333 246.896H206.187C206.253 246.896 206.306 246.95 206.306 247.015V247.856C206.306 247.922 206.253 247.975 206.187 247.975Z" fill="#7297CF"/>
<path d="M275.817 247.975H255.962C255.897 247.975 255.844 247.922 255.844 247.856V247.015C255.844 246.95 255.897 246.896 255.962 246.896H275.817C275.882 246.896 275.935 246.95 275.935 247.015V247.856C275.935 247.922 275.882 247.975 275.817 247.975Z" fill="#7297CF"/>
<path d="M353.716 247.175H333.861C333.796 247.175 333.743 247.122 333.743 247.056V246.215C333.743 246.15 333.796 246.097 333.861 246.097H353.716C353.781 246.097 353.834 246.15 353.834 246.215V247.056C353.834 247.122 353.781 247.175 353.716 247.175Z" fill="#7297CF"/>
<path d="M106.251 231.739H86.3962C86.3307 231.739 86.2776 231.686 86.2776 231.621V230.78C86.2776 230.714 86.3307 230.661 86.3962 230.661H106.251C106.316 230.661 106.369 230.714 106.369 230.78V231.621C106.369 231.686 106.316 231.739 106.251 231.739Z" fill="#7297CF"/>
<path d="M244.886 231.214H225.032C224.966 231.214 224.913 231.161 224.913 231.095V230.254C224.913 230.189 224.966 230.136 225.032 230.136H244.886C244.952 230.136 245.005 230.189 245.005 230.254V231.095C245.005 231.161 244.952 231.214 244.886 231.214Z" fill="#7297CF"/>
<path d="M386.137 231.13H366.282C366.217 231.13 366.164 231.077 366.164 231.011V230.17C366.164 230.105 366.217 230.052 366.282 230.052H386.137C386.202 230.052 386.255 230.105 386.255 230.17V231.011C386.255 231.077 386.202 231.13 386.137 231.13Z" fill="#7297CF"/>
<path d="M316.612 226.108H296.758C296.692 226.108 296.639 226.054 296.639 225.989V225.148C296.639 225.082 296.692 225.029 296.758 225.029H316.612C316.678 225.029 316.731 225.082 316.731 225.148V225.989C316.731 226.055 316.678 226.108 316.612 226.108Z" fill="#7297CF"/>
</svg>
